<?xml version="1.0" standalone="no"?>
<!DOCTYPE svg PUBLIC "-//W3C//DTD SVG 20010904//EN"
 "http://www.w3.org/TR/2001/REC-SVG-20010904/DTD/svg10.dtd">
<svg version="1.0" xmlns="http://www.w3.org/2000/svg"
 width="415.000000pt" height="421.000000pt" viewBox="0 0 415.000000 421.000000"
 preserveAspectRatio="xMidYMid meet">
<metadata>
Created by potrace 1.16, written by Peter Selinger 2001-2019
</metadata>
<g transform="translate(0.000000,421.000000) scale(0.100000,-0.100000)"
fill="#000000" stroke="none">
<path d="M1858 3920 c-266 -48 -467 -233 -499 -458 -13 -86 -5 -148 36 -287
48 -164 51 -187 24 -210 -45 -42 -63 -94 -63 -185 -1 -76 3 -91 29 -139 30
-55 85 -108 121 -117 32 -8 44 -100 44 -326 l0 -196 -66 -16 c-137 -34 -239
-113 -301 -231 -32 -61 -85 -226 -97 -302 -7 -46 -11 -44 60 -47 13 -1 24 24
46 104 37 132 77 216 127 268 55 56 151 103 151 74 0 -5 -20 -32 -45 -61 -83
-98 -149 -237 -175 -371 -8 -42 -7 -47 21 -72 l30 -28 140 88 140 87 -5 65
c-4 36 -9 117 -12 180 l-6 115 59 -61 c306 -320 344 -363 363 -420 12 -35 20
-84 20 -126 0 -56 7 -85 37 -158 20 -50 39 -90 42 -90 4 0 33 66 65 146 l58
147 -16 54 -15 55 201 216 c111 120 208 224 216 232 13 13 14 2 8 -90 -18
-295 -132 -745 -308 -1215 -69 -183 -196 -451 -208 -439 -21 22 -137 256 -185
375 l-53 130 -11 -34 c-20 -60 -82 -119 -221 -210 -257 -168 -376 -211 -526
-187 -146 23 -292 124 -388 269 -97 147 -102 256 -17 391 16 25 32 61 36 80
13 66 77 255 105 310 28 55 94 126 141 150 32 17 36 25 44 79 10 66 43 189 66
240 10 24 17 46 14 49 -12 12 -295 -70 -374 -109 -97 -48 -102 -53 -446 -414
l-238 -250 7 -80 c16 -220 104 -410 267 -579 131 -137 256 -214 446 -273 l88
-28 1228 -3 1228 -3 109 27 c405 96 696 436 736 859 l6 70 -74 85 c-41 47
-180 192 -309 322 -218 220 -239 239 -309 271 -61 29 -358 113 -366 104 -2 -1
12 -47 31 -102 19 -55 43 -142 53 -194 17 -86 21 -94 48 -106 97 -42 163 -151
214 -351 40 -160 54 -264 54 -419 1 -163 -15 -217 -84 -286 -58 -58 -134 -85
-213 -76 -87 11 -147 65 -133 122 19 76 117 72 128 -5 3 -23 7 -25 48 -22 58
4 113 40 142 95 21 38 23 54 22 182 -2 200 -59 478 -119 581 -31 52 -93 108
-137 123 -34 11 -34 11 -45 99 -15 114 -54 247 -103 348 -29 61 -54 95 -99
136 -69 64 -120 91 -215 115 l-68 16 5 236 c2 130 8 246 12 258 4 12 17 24 28
27 39 10 95 65 122 119 50 104 42 220 -22 304 -39 51 -40 35 12 228 44 166 25
285 -60 370 -21 21 -57 46 -80 56 -30 13 -47 29 -56 51 -36 88 -201 206 -347
250 -76 22 -285 33 -364 18z m72 -235 c31 -8 101 -35 154 -60 54 -25 121 -53
149 -62 29 -10 44 -19 35 -21 -17 -3 -156 31 -298 74 -72 22 -100 25 -185 22
-84 -3 -109 -8 -155 -30 -64 -31 -111 -74 -153 -138 -33 -51 -28 -22 9 50 39
78 119 145 204 171 43 13 180 10 240 -6z m520 -289 c0 -93 53 -288 95 -350 24
-35 25 -44 25 -175 0 -187 -31 -361 -87 -490 -30 -69 -148 -187 -224 -224
-151 -73 -312 -48 -455 70 -89 74 -133 139 -161 239 -42 150 -53 232 -53 392
0 139 2 156 20 179 22 28 60 141 60 177 0 44 31 126 51 137 16 8 45 5 127 -15
151 -35 205 -39 297 -23 101 19 181 49 242 92 27 18 51 33 56 34 4 1 7 -19 7
-43z m-714 -1256 c41 -40 89 -73 139 -97 66 -31 89 -37 169 -41 57 -3 114 0
147 8 78 18 175 72 241 132 l56 53 6 -44 c3 -24 6 -82 6 -128 l0 -84 -72 -82
c-106 -121 -340 -367 -349 -367 -7 0 -296 307 -378 403 l-41 48 0 130 c0 71 3
129 7 129 3 0 34 -27 69 -60z m1029 -299 c54 -24 120 -99 155 -174 35 -74 78
-241 82 -316 l3 -54 -42 -14 c-28 -9 -59 -33 -91 -68 -43 -47 -54 -70 -90
-177 -64 -193 -122 -450 -122 -544 0 -94 50 -165 131 -184 55 -13 69 -8 69 25
0 49 63 73 102 38 27 -24 24 -94 -4 -120 -70 -65 -226 -52 -302 24 -100 99
-109 218 -40 509 31 135 100 346 135 415 29 59 106 135 146 145 13 4 23 14 23
24 0 30 -48 207 -69 254 -23 52 -97 160 -135 195 -47 44 -22 55 49 22z m352
-660 c42 -19 83 -70 98 -121 8 -24 7 -24 -17 -8 -14 9 -51 24 -82 33 -64 19
-126 11 -197 -25 l-40 -21 16 38 c29 70 96 122 155 122 14 0 44 -8 67 -18z"/>
<path d="M3245 2851 c-177 -43 -319 -172 -377 -341 -32 -93 -31 -240 1 -325
116 -299 457 -430 733 -283 57 30 59 30 78 13 15 -14 19 -26 15 -45 -5 -25 15
-48 217 -248 l223 -221 3 152 3 151 -143 144 c-139 140 -144 143 -179 139 -25
-3 -42 0 -52 11 -15 14 -13 19 12 51 65 83 101 189 101 301 0 240 -175 456
-409 506 -85 18 -139 17 -226 -5z m284 -145 c73 -38 155 -118 186 -180 100
-208 6 -457 -203 -537 -107 -40 -229 -35 -327 14 -60 30 -152 123 -183 186
-24 50 -27 67 -27 161 0 93 3 112 27 162 35 76 95 138 169 178 87 46 103 50
209 47 81 -3 103 -7 149 -31z"/>
<path d="M1665 1431 c-22 -10 -122 -70 -222 -134 -100 -63 -184 -113 -187
-109 -3 3 -6 13 -6 22 0 8 -12 31 -27 49 -36 42 -111 64 -174 50 -112 -25
-154 -92 -234 -369 -22 -78 -45 -134 -67 -165 -29 -42 -33 -54 -33 -114 0 -58
4 -74 35 -126 55 -93 149 -186 227 -226 64 -32 72 -34 173 -34 104 0 109 1
182 38 42 21 140 80 219 131 176 113 204 146 204 240 0 45 -5 70 -20 91 -15
23 -19 43 -16 87 2 45 -2 65 -19 93 -12 19 -28 39 -36 43 -11 6 13 27 95 79
123 80 151 116 151 198 0 53 -16 88 -57 127 -53 51 -119 61 -188 29z m105
-121 c23 -23 25 -47 7 -71 -7 -9 -98 -71 -202 -139 -105 -67 -198 -129 -207
-138 -35 -30 -12 -92 34 -92 11 0 46 16 78 36 61 37 78 37 109 0 21 -25 5 -49
-59 -88 -67 -43 -84 -76 -55 -108 23 -26 50 -25 87 2 35 25 57 17 72 -25 8
-22 6 -31 -12 -50 -31 -33 -282 -188 -362 -223 -129 -57 -239 -30 -341 85 -53
59 -89 124 -89 158 0 12 13 35 29 51 18 18 32 44 36 68 7 45 90 313 113 362
20 45 66 69 99 51 35 -19 38 -50 10 -120 -40 -99 -9 -136 68 -83 159 109 533
344 548 344 9 0 26 -9 37 -20z"/>
</g>
</svg>
